<svg width="24" height="24" viewBox="0 0 24 24" fill="none" xmlns="http://www.w3.org/2000/svg">
<g id="Icon">
<g id="Group 1">
<g id="Icon_2">
<path id="Ellipse 9" d="M19.7629 14.5617C19.7629 18.9276 16.6241 19.8512 12.1193 19.2409C7.46918 19.764 3.95255 18.9276 3.95255 14.5617C3.95255 10.1958 7.49181 6.65656 11.8577 6.65656C16.2236 6.65656 19.7629 10.1958 19.7629 14.5617Z" fill="white"/>
<path id="Ellipse 10" d="M3.0414 10.1524C3.70769 12.4034 4.20476 13.9911 3.19615 14.1672C2.18755 14.3434 1.3807 12.8098 0.684954 10.5639C0.306664 8.39767 0.817638 6.49882 1.82624 6.32268C2.83485 6.14655 2.45637 8.17585 3.0414 10.1524Z" fill="white"/>
<path id="Ellipse 11" d="M20.668 10.1524C20.0018 12.4034 19.5047 13.9911 20.5133 14.1672C21.5219 14.3434 22.3287 12.8098 23.0245 10.5639C23.4028 8.39767 22.8918 6.49882 21.8832 6.32268C20.8746 6.14655 21.2531 8.17585 20.668 10.1524Z" fill="white"/>
<path id="Ellipse 12" d="M10.1139 6.30778C10.1139 6.56459 9.93176 6.77279 9.70705 6.77279C9.48233 6.77279 9.30016 6.56459 9.30016 6.30778C9.30016 6.05096 8.9592 5.34869 9.18391 5.34869C9.40863 5.34869 10.1139 6.05096 10.1139 6.30778Z" fill="white"/>
<path id="Ellipse 14" d="M10.8115 6.07534C10.8115 6.33216 10.7456 6.48223 10.5208 6.48223C10.2961 6.48223 10.2011 6.33216 10.2011 6.07534C10.2011 5.81853 10.2089 5.14532 10.4336 5.14532C10.6584 5.14532 10.8115 5.81853 10.8115 6.07534Z" fill="white"/>
<path id="Ellipse 13" d="M10.8834 6.01721C10.8834 6.27403 11.0655 6.48222 11.2902 6.48222C11.515 6.48222 11.6971 6.27403 11.6971 6.01721C11.6971 5.76039 12.1621 5.26157 11.9878 5C11.763 5 10.8834 5.76039 10.8834 6.01721Z" fill="white"/>
</g>
</g>
</g>
</svg>
