<svg width="711" height="664" viewBox="0 0 711 664" fill="none" xmlns="http://www.w3.org/2000/svg">
<path d="M353.748 610.5C355.748 563.3 317.248 541.5 299.248 535C299.248 491.796 282.248 486 282.458 484.06C282.668 484.12 320.748 486.5 326.248 484C330.648 482 361.582 484.5 376.748 485C424.183 488.857 436.079 488.995 436.274 488.552C436.265 488.534 436.257 488.517 436.248 488.5C436.272 488.518 436.281 488.535 436.274 488.552C439.423 494.979 434.739 509.684 431.248 516C420.448 525.2 420.415 531.833 421.748 534C366.548 553.2 358.915 592.833 362.748 610.5H353.748Z" fill="#F9B1D7"/>
<path d="M282.248 484C282.306 484.015 282.377 484.034 282.458 484.06M282.458 484.06C282.248 486 299.248 491.796 299.248 535C317.248 541.5 355.748 563.3 353.748 610.5H362.748C358.915 592.833 366.548 553.2 421.748 534C420.415 531.833 420.448 525.2 431.248 516C434.748 509.667 439.448 494.9 436.248 488.5C436.915 489 425.948 489 376.748 485C361.582 484.5 330.648 482 326.248 484C320.748 486.5 282.668 484.12 282.458 484.06Z" stroke="black"/>
<path d="M463.748 482.093C490.415 492.76 541.248 534.493 531.248 616.093M537.248 616.093H463.748M441.248 482.093C443.915 490.093 445.148 509.993 428.748 525.593C426.196 528.145 423.683 533.12 428.748 536.748M507.248 576.093C461.248 523.593 452.748 543.593 435.748 539.593C432.56 538.843 430.299 537.859 428.748 536.748M428.748 536.748C402.415 542.363 354.148 567.993 371.748 625.593C375.582 637.76 392.848 660.993 431.248 656.593C438.082 657.26 451.848 654.993 452.248 640.593L453.248 626.593C458.748 623.927 469.148 614.693 466.748 599.093" stroke="black" stroke-width="12"/>
<path d="M560.748 309.093C573.139 260.23 591.614 171.142 594.228 105.593M551.248 427.594C593.915 414.927 672.748 382.693 646.748 355.094C620.748 327.494 627.582 323.927 634.248 325.594C708.248 335.594 709.415 202.76 700.748 135.093C688.915 97.4268 656.948 20.7935 623.748 15.5935C590.548 10.3935 585.582 29.4268 587.248 39.5935C593.579 54.0463 595.341 77.6865 594.228 105.593M594.228 105.593C604.735 184.927 612.748 355.194 560.748 401.594M646.748 359.094C613.361 372.927 553.818 394.894 560.748 404.094M256.748 477.594C225.582 498.594 168.048 556.094 187.248 618.094H252.248M253.248 598.094C250.248 608.26 251.348 627.294 279.748 622.094M255.748 619.594C254.582 631.26 258.848 654.594 285.248 654.594C318.248 654.593 349.248 651.594 347.748 622.094C346.248 592.593 352.748 566.094 299.248 541.094C286.415 536.76 251.448 533.694 214.248 556.094" stroke="black" stroke-width="12"/>
<path d="M347.748 617H368.748" stroke="black" stroke-width="15"/>
<path d="M113.748 390C113.86 390.092 113.974 390.184 114.089 390.277C117.378 392.023 142.553 401.243 155.748 406C155.348 406.4 157.582 411.833 158.748 414.5C163.248 414.167 169.648 413.8 159.248 415C148.956 416.188 125.083 399.191 114.089 390.277C113.806 390.127 113.685 390.032 113.748 390Z" fill="#E881B8"/>
<path d="M113.748 390C124.582 398.833 148.848 416.2 159.248 415C169.648 413.8 163.248 414.167 158.748 414.5C157.582 411.833 155.348 406.4 155.748 406C141.415 400.833 112.948 390.4 113.748 390Z" stroke="black"/>
<path d="M255.748 479C270.55 479.844 298.72 493.424 292.991 541" stroke="black" stroke-width="12"/>
<path d="M47.2482 64C38.0816 60.1667 31.3482 50.1935 57.7482 28.5935C90.7482 1.59346 105.248 4.59346 118.748 8.59346C132.248 12.5935 127.248 96.0935 118.748 113.093C114.832 120.927 111.833 146.608 109.771 173.093M154.248 389C123.848 389 109.082 279.927 106.748 226.093C107.243 212.525 108.253 192.591 109.771 173.093M109.771 173.093C121.763 222.927 149.248 320.493 163.248 312.093" stroke="black" stroke-width="12"/>
<path d="M190.248 424.093C195.415 434.76 230.748 453.293 330.748 442.093C455.748 428.093 456.748 459.093 510.748 435.093L527.248 425.593" stroke="black" stroke-width="12"/>
<path d="M313.748 260.093C330.082 249.26 370.348 234.093 400.748 260.093M313.748 284.593C328.748 272.927 368.148 256.593 405.748 284.593" stroke="black" stroke-width="12"/>
<path d="M220.248 213.593C235.248 212.093 266.948 216.193 273.748 244.593M508.248 209.093C489.915 202.427 450.748 200.193 440.748 244.593M478.248 184.093C467.415 185.76 445.648 191.093 445.248 199.093" stroke="black" stroke-width="12"/>
<path d="M325.248 156.593C212.448 179.793 168.915 273.593 161.248 317.593C150.082 362.093 149.448 454.993 236.248 470.594C344.748 490.094 296.748 471.094 413.248 481.594C529.748 492.094 594.248 418.594 551.248 293.093C508.248 167.593 451.248 175.093 422.248 167.593C393.248 160.093 398.748 116.593 391.748 116.593C384.748 116.593 375.748 153.593 374.748 133.593C373.748 113.593 321.248 110.593 337.748 120.093C354.248 129.593 358.344 132.593 358.344 137.093C358.344 141.593 284.344 121.093 324.344 137.093C356.344 149.893 338.582 156.593 325.248 156.593Z" fill="#E881B8" stroke="black" stroke-width="12"/>
<path d="M245.248 193.593C251.748 195.427 265.248 201.093 267.248 209.093" stroke="black" stroke-width="12"/>
<path d="M311.248 456.593C330.082 461.093 378.648 467.393 422.248 456.593" stroke="black" stroke-width="11"/>
<ellipse cx="230.248" cy="335.593" rx="51.5" ry="62" fill="black"/>
<ellipse cx="236.748" cy="309.593" rx="18" ry="20" fill="white"/>
<ellipse cx="490.248" cy="340.593" rx="51.5" ry="62" fill="black"/>
<path d="M424.248 360.093C424.248 395.883 394.585 425.093 357.748 425.093C320.912 425.093 291.248 395.883 291.248 360.093C291.248 324.304 320.912 295.093 357.748 295.093C394.585 295.093 424.248 324.304 424.248 360.093Z" fill="#DDBCF1" stroke="black" stroke-width="11"/>
<ellipse cx="483.748" cy="309.593" rx="18" ry="20" fill="white"/>
<path d="M42.2482 61C56.4149 69.3333 75.2482 90.9935 27.2482 104.593C15.2482 106.76 -4.45179 135.593 12.7482 233.593C29.9482 331.593 66.2482 366.093 82.2482 371.093M82.2482 371.093L159.248 401.093M82.2482 371.093C103.248 390.76 149.848 428.193 168.248 420.593" stroke="black" stroke-width="12"/>
<path d="M266.248 645.593C267.248 645.593 285.248 655.093 293.748 630.593M297.248 655.093C307.748 651.927 326.748 640.6 320.748 619" stroke="black" stroke-width="12"/>
<path d="M410.748 629.093C410.915 636.927 414.648 653.393 428.248 656.593M386.748 626.093C389.248 636.76 396.048 657.193 403.248 653.593" stroke="black" stroke-width="12"/>
<path d="M350.748 496.093C341.748 504.093 324.748 521.193 328.748 525.593C333.748 531.093 349.248 517.593 352.748 509.093C356.248 500.593 332.748 551.593 342.748 550.593C350.748 549.793 358.082 530.26 360.748 520.593C354.915 536.593 345.948 567.293 356.748 562.093C367.548 556.893 368.915 542.593 368.248 536.093" stroke="black" stroke-width="10"/>
<path d="M685.748 97.5C654.148 17.1 619.415 12.1667 607.748 19C603.415 20 592.648 24.7 592.248 31.5C591.748 40 595.248 43 598.248 63C600.648 79 599.826 99.5 600.748 108C612.248 214 605.248 211 605.248 267.5C605.248 312.7 591.082 361.5 583.748 379.5L639.748 355.5C625.748 341.667 613.148 315.8 638.748 321C664.348 326.2 675.415 303.833 682.248 293.5C695.415 262.167 717.348 177.9 685.748 97.5Z" fill="#EF9898" stroke="black"/>
<path d="M561.248 308.5C567.648 296.9 589.248 213 595.248 168.5L596.748 207.5V249C601.248 324.5 566.248 392 569.748 379C572.548 368.6 564.915 327 561.248 308.5Z" fill="#E881B8" stroke="black"/>
<path d="M150.748 382.5C127.548 384.9 114.582 294.333 111.748 237L113.248 211.5L123.027 243.392C110.436 197.835 118.185 225.7 123.748 245.743L123.027 243.392C123.261 244.236 123.501 245.105 123.748 246C137.348 295.2 151.748 313 156.748 316C149.548 328.8 149.415 365.667 150.748 382.5Z" fill="#E881B8"/>
<path d="M111.748 237C114.582 294.333 127.548 384.9 150.748 382.5C149.415 365.667 149.548 328.8 156.748 316C151.748 313 137.348 295.2 123.748 246C110.148 196.8 118.082 225.329 123.748 245.743L113.248 211.5L111.748 237Z" stroke="black"/>
<path d="M68.2482 28C89.4482 8.40001 109.748 10.8333 117.248 14.5C121.248 18.5 118.748 27 120.748 35C122.748 43 119.748 44.5 120.748 62C121.748 79.5 114.248 109 114.248 109.5C113.248 110 109.248 124 108.748 126.5C108.248 129 104.248 163.5 102.248 187C100.648 205.8 101.248 233.5 101.748 245L106.748 292.5C108.582 301.667 114.148 324 117.748 342C121.348 360 131.582 379 136.748 386L121.248 380C112.248 379.5 102.748 370 87.2482 367C74.8482 364.6 59.4149 343.667 53.2482 333.5C46.7482 329 32.2482 286 30.7482 285.5C29.5482 285.1 23.5816 257.333 20.7482 243.5L15.2482 210.5C14.0482 203.3 12.7482 182.833 12.2482 173.5C10.6482 172.7 12.2482 154.167 13.2482 145C12.9149 144.5 13.2482 140.1 17.2482 126.5C21.2482 112.9 27.5816 110.167 30.2482 110.5C46.2482 105.5 49.2482 101.5 58.2482 95C67.2482 88.5 62.7482 75.5 62.7482 74C62.7482 72.5 56.2482 64 54.2482 62.5C52.2482 61 47.2482 59.5 45.2482 53.5C43.6482 48.7 59.9149 34.5 68.2482 28Z" fill="#EF9898" stroke="black"/>
<path d="M571.748 399C572.948 395 621.582 375.333 645.748 366C644.748 375.5 639.748 377 637.248 381C634.748 385 618.748 393.5 597.748 404.5C576.748 415.5 557.748 418.5 560.248 418C562.748 417.5 564.248 405 564.748 405.5C565.148 405.9 569.582 401.333 571.748 399Z" fill="#E881B8" stroke="black"/>
<path d="M197.248 556C204.048 530.8 239.748 498.167 256.748 485C261.148 484.6 266.582 487.833 268.748 489.5C286.748 499.1 289.248 522.167 288.248 532.5C249.848 531.3 220.582 544.333 210.748 551L217.248 561C262.248 532.5 292.945 546 294.748 546C297.748 546 311.915 555 319.748 560C325.248 563.511 329.582 569 333.248 574.5C335.915 578.5 339.582 585.167 341.248 592.5V610.5L341.748 627C341.582 628.333 340.548 632.2 337.748 637C334.948 641.8 325.915 644.667 321.748 645.5C325.348 641.5 327.248 634.5 327.748 631.5C328.948 629.1 327.415 621.333 326.748 617.5L315.248 620C314.248 620.5 316.248 626.167 316.248 629C316.248 631.5 312.248 638 309.748 641C308.248 642.5 302.082 646.667 298.248 648.5H289.248L292.748 645C294.248 642.5 297.748 636.5 299.248 632.5L288.248 628.5C289.048 632.5 282.248 638.5 278.748 641C270.748 642 268.748 640 266.248 639.5C264.248 639.1 262.748 631.667 262.248 628C263.248 628.333 265.948 629 268.748 629C271.548 629 277.915 628.333 280.748 628L278.248 616C271.848 618.4 264.248 616 261.248 614.5C257.248 614.9 257.915 605 258.748 600L247.248 596.5C244.848 605.7 246.248 610.667 247.248 612C229.582 612.167 193.748 612.4 191.748 612C189.748 611.6 189.248 599.833 189.248 594C185.648 591.2 193.082 567.5 197.248 556Z" fill="#E881B8" stroke="black"/>
<path d="M461.748 486L448.248 488C450.248 493 446.748 506.5 445.748 510.5C444.948 513.7 441.748 519.167 440.248 521.5C440.248 524 431.248 531 431.748 531.5C432.248 532 431.248 534.5 448.748 533.5C466.248 532.5 471.248 537.5 479.248 541.5C485.648 544.7 503.582 563.167 511.748 572L502.748 580L500.248 577C497.748 572 470.748 549 464.748 547C458.748 545 459.748 545 446.248 546C435.448 546.8 429.415 544.333 427.748 543L416.748 546.5C406.748 549.5 392.248 561.667 386.248 568C384.953 569.367 379.248 577.5 375.248 590C372.048 600 372.99 608 373.248 612C374.048 624.4 380.082 631 382.248 633L380.748 627.5L392.748 625C393.948 635.4 399.248 644.333 401.748 647.5L410.748 650C408.348 649.2 405.748 636 404.748 629.5L416.748 629C416.748 634.6 420.415 642.667 422.248 646C428.248 654 439.415 650 444.248 647C446.248 647.4 447.082 631.167 447.248 623C460.048 619 461.582 606.333 460.748 600.5L472.248 598.5C474.248 603.7 473.082 608.667 472.248 610.5H525.248C528.748 599.5 531.207 597.725 520.248 554.5C511.248 519 475.748 492.5 461.748 486Z" fill="#E881B8" stroke="black"/>
</svg>
